<svg width="75" height="75" viewBox="0 0 75 75" fill="none" xmlns="http://www.w3.org/2000/svg">
<circle cx="37.5" cy="37.5" r="35" stroke="#EB5757" stroke-width="5"/>
<path d="M24.7305 48V27.293H29.5469V29.2617C29.9688 28.5586 30.5898 27.9492 31.4102 27.4336C32.2539 26.918 33.2266 26.6602 34.3281 26.6602C35.4062 26.6602 36.2852 26.7891 36.9648 27.0469V31.6523C36.1445 31.3945 35.2773 31.2656 34.3633 31.2656C32.8633 31.2656 31.7148 31.8516 30.918 33.0234C30.1445 34.1953 29.7578 35.7656 29.7578 37.7344V48H24.7305ZM37.9141 31.5469V27.293H41.0078V21.2812H46V27.293H50.5V31.5469H46V41.1797C46 42.8672 46.7383 43.7109 48.2148 43.7109H50.5352V48H47.582C45.5664 48 43.9609 47.4844 42.7656 46.4531C41.5938 45.4219 41.0078 43.7695 41.0078 41.4961V31.5469H37.9141Z" fill="#EB5757"/>
</svg>
